<mxfile host="app.diagrams.net" agent="Mozilla/5.0 (Windows NT 10.0; Win64; x64) AppleWebKit/537.36 (KHTML, like Gecko) Chrome/129.0.0.0 Safari/537.36" version="24.7.14">
  <diagram name="Halaman-1" id="1N9N5WJnyD0kWC90qeqq">
    <mxGraphModel dx="789" dy="446" grid="1" gridSize="10" guides="1" tooltips="1" connect="1" arrows="1" fold="1" page="1" pageScale="1" pageWidth="827" pageHeight="1169" math="0" shadow="0">
      <root>
        <mxCell id="0" />
        <mxCell id="1" parent="0" />
        <mxCell id="di1mMoNL77aX2Rl6L03--5" value="" style="edgeStyle=orthogonalEdgeStyle;rounded=0;orthogonalLoop=1;jettySize=auto;html=1;" edge="1" parent="1" source="di1mMoNL77aX2Rl6L03--1" target="di1mMoNL77aX2Rl6L03--4">
          <mxGeometry relative="1" as="geometry" />
        </mxCell>
        <mxCell id="di1mMoNL77aX2Rl6L03--1" value="Start" style="html=1;dashed=0;whiteSpace=wrap;shape=mxgraph.dfd.start" vertex="1" parent="1">
          <mxGeometry x="356" y="30" width="116" height="50" as="geometry" />
        </mxCell>
        <mxCell id="di1mMoNL77aX2Rl6L03--7" value="" style="edgeStyle=orthogonalEdgeStyle;rounded=0;orthogonalLoop=1;jettySize=auto;html=1;" edge="1" parent="1" source="di1mMoNL77aX2Rl6L03--4" target="di1mMoNL77aX2Rl6L03--6">
          <mxGeometry relative="1" as="geometry" />
        </mxCell>
        <mxCell id="di1mMoNL77aX2Rl6L03--4" value="&lt;div&gt;&lt;br&gt;&lt;/div&gt;&lt;div&gt;&lt;span style=&quot;background-color: initial;&quot;&gt;String Username&lt;/span&gt;&lt;br&gt;&lt;/div&gt;&lt;div&gt;String Password&amp;nbsp;&lt;/div&gt;&lt;div&gt;Int Pilihan&lt;/div&gt;&lt;div&gt;Struct Atm&lt;/div&gt;&lt;div&gt;&lt;br&gt;&lt;/div&gt;" style="shape=hexagon;perimeter=hexagonPerimeter2;whiteSpace=wrap;html=1;fixedSize=1;dashed=0;" vertex="1" parent="1">
          <mxGeometry x="354" y="120" width="120" height="80" as="geometry" />
        </mxCell>
        <mxCell id="di1mMoNL77aX2Rl6L03--10" value="" style="edgeStyle=orthogonalEdgeStyle;rounded=0;orthogonalLoop=1;jettySize=auto;html=1;" edge="1" parent="1" source="di1mMoNL77aX2Rl6L03--6" target="di1mMoNL77aX2Rl6L03--8">
          <mxGeometry relative="1" as="geometry" />
        </mxCell>
        <mxCell id="di1mMoNL77aX2Rl6L03--6" value="Input Username&lt;div&gt;Input Password&lt;/div&gt;" style="shape=parallelogram;perimeter=parallelogramPerimeter;whiteSpace=wrap;html=1;fixedSize=1;dashed=0;" vertex="1" parent="1">
          <mxGeometry x="354" y="240" width="120" height="60" as="geometry" />
        </mxCell>
        <mxCell id="di1mMoNL77aX2Rl6L03--8" value="correctUsername&lt;div&gt;correctPassword&lt;/div&gt;" style="shape=rhombus;html=1;dashed=0;whiteSpace=wrap;perimeter=rhombusPerimeter;" vertex="1" parent="1">
          <mxGeometry x="327" y="340" width="174" height="80" as="geometry" />
        </mxCell>
        <mxCell id="di1mMoNL77aX2Rl6L03--12" value="" style="strokeWidth=2;html=1;shape=mxgraph.flowchart.annotation_2;align=left;labelPosition=right;pointerEvents=1;rotation=90;" vertex="1" parent="1">
          <mxGeometry x="389" y="380" width="50" height="100" as="geometry" />
        </mxCell>
        <mxCell id="di1mMoNL77aX2Rl6L03--20" value="" style="edgeStyle=orthogonalEdgeStyle;rounded=0;orthogonalLoop=1;jettySize=auto;html=1;" edge="1" parent="1" source="di1mMoNL77aX2Rl6L03--13" target="di1mMoNL77aX2Rl6L03--19">
          <mxGeometry relative="1" as="geometry" />
        </mxCell>
        <mxCell id="di1mMoNL77aX2Rl6L03--13" value="username == correctUsername &amp;amp;&amp;amp; password == correctPassword" style="html=1;dashed=0;whiteSpace=wrap;" vertex="1" parent="1">
          <mxGeometry x="258" y="450" width="156" height="80" as="geometry" />
        </mxCell>
        <mxCell id="di1mMoNL77aX2Rl6L03--16" value="" style="edgeStyle=orthogonalEdgeStyle;rounded=0;orthogonalLoop=1;jettySize=auto;html=1;" edge="1" parent="1" source="di1mMoNL77aX2Rl6L03--14" target="di1mMoNL77aX2Rl6L03--15">
          <mxGeometry relative="1" as="geometry" />
        </mxCell>
        <mxCell id="di1mMoNL77aX2Rl6L03--14" value="else" style="html=1;dashed=0;whiteSpace=wrap;" vertex="1" parent="1">
          <mxGeometry x="439" y="450" width="156" height="80" as="geometry" />
        </mxCell>
        <mxCell id="di1mMoNL77aX2Rl6L03--15" value="Ouput Username atau Password salah" style="shape=parallelogram;perimeter=parallelogramPerimeter;whiteSpace=wrap;html=1;fixedSize=1;dashed=0;" vertex="1" parent="1">
          <mxGeometry x="640" y="550" width="153" height="80" as="geometry" />
        </mxCell>
        <mxCell id="di1mMoNL77aX2Rl6L03--22" value="" style="edgeStyle=orthogonalEdgeStyle;rounded=0;orthogonalLoop=1;jettySize=auto;html=1;" edge="1" parent="1" source="di1mMoNL77aX2Rl6L03--19" target="di1mMoNL77aX2Rl6L03--21">
          <mxGeometry relative="1" as="geometry" />
        </mxCell>
        <mxCell id="di1mMoNL77aX2Rl6L03--24" value="" style="edgeStyle=orthogonalEdgeStyle;rounded=0;orthogonalLoop=1;jettySize=auto;html=1;" edge="1" parent="1" source="di1mMoNL77aX2Rl6L03--19" target="di1mMoNL77aX2Rl6L03--23">
          <mxGeometry relative="1" as="geometry" />
        </mxCell>
        <mxCell id="di1mMoNL77aX2Rl6L03--26" value="" style="edgeStyle=orthogonalEdgeStyle;rounded=0;orthogonalLoop=1;jettySize=auto;html=1;" edge="1" parent="1" source="di1mMoNL77aX2Rl6L03--19" target="di1mMoNL77aX2Rl6L03--25">
          <mxGeometry relative="1" as="geometry" />
        </mxCell>
        <mxCell id="di1mMoNL77aX2Rl6L03--28" value="" style="edgeStyle=orthogonalEdgeStyle;rounded=0;orthogonalLoop=1;jettySize=auto;html=1;" edge="1" parent="1" source="di1mMoNL77aX2Rl6L03--19" target="di1mMoNL77aX2Rl6L03--27">
          <mxGeometry relative="1" as="geometry" />
        </mxCell>
        <mxCell id="di1mMoNL77aX2Rl6L03--30" value="" style="edgeStyle=orthogonalEdgeStyle;rounded=0;orthogonalLoop=1;jettySize=auto;html=1;" edge="1" parent="1" source="di1mMoNL77aX2Rl6L03--19" target="di1mMoNL77aX2Rl6L03--29">
          <mxGeometry relative="1" as="geometry" />
        </mxCell>
        <mxCell id="di1mMoNL77aX2Rl6L03--32" value="" style="edgeStyle=orthogonalEdgeStyle;rounded=0;orthogonalLoop=1;jettySize=auto;html=1;" edge="1" parent="1" source="di1mMoNL77aX2Rl6L03--19" target="di1mMoNL77aX2Rl6L03--31">
          <mxGeometry relative="1" as="geometry" />
        </mxCell>
        <mxCell id="di1mMoNL77aX2Rl6L03--19" value="Pilihan Menu&amp;nbsp;&lt;div&gt;Input Pilihan&lt;/div&gt;" style="shape=parallelogram;perimeter=parallelogramPerimeter;whiteSpace=wrap;html=1;fixedSize=1;dashed=0;" vertex="1" parent="1">
          <mxGeometry x="254" y="570" width="164" height="80" as="geometry" />
        </mxCell>
        <mxCell id="di1mMoNL77aX2Rl6L03--34" value="" style="edgeStyle=orthogonalEdgeStyle;rounded=0;orthogonalLoop=1;jettySize=auto;html=1;" edge="1" parent="1" source="di1mMoNL77aX2Rl6L03--21" target="di1mMoNL77aX2Rl6L03--33">
          <mxGeometry relative="1" as="geometry" />
        </mxCell>
        <mxCell id="di1mMoNL77aX2Rl6L03--21" value="Case 1" style="rhombus;whiteSpace=wrap;html=1;dashed=0;" vertex="1" parent="1">
          <mxGeometry x="50" y="670" width="80" height="80" as="geometry" />
        </mxCell>
        <mxCell id="di1mMoNL77aX2Rl6L03--38" value="" style="edgeStyle=orthogonalEdgeStyle;rounded=0;orthogonalLoop=1;jettySize=auto;html=1;" edge="1" parent="1" source="di1mMoNL77aX2Rl6L03--23" target="di1mMoNL77aX2Rl6L03--37">
          <mxGeometry relative="1" as="geometry" />
        </mxCell>
        <mxCell id="di1mMoNL77aX2Rl6L03--23" value="Case 2" style="rhombus;whiteSpace=wrap;html=1;dashed=0;" vertex="1" parent="1">
          <mxGeometry x="140" y="670" width="80" height="80" as="geometry" />
        </mxCell>
        <mxCell id="di1mMoNL77aX2Rl6L03--40" value="" style="edgeStyle=orthogonalEdgeStyle;rounded=0;orthogonalLoop=1;jettySize=auto;html=1;" edge="1" parent="1" source="di1mMoNL77aX2Rl6L03--25" target="di1mMoNL77aX2Rl6L03--39">
          <mxGeometry relative="1" as="geometry" />
        </mxCell>
        <mxCell id="di1mMoNL77aX2Rl6L03--25" value="Case 3" style="rhombus;whiteSpace=wrap;html=1;dashed=0;" vertex="1" parent="1">
          <mxGeometry x="230" y="680" width="80" height="80" as="geometry" />
        </mxCell>
        <mxCell id="di1mMoNL77aX2Rl6L03--44" value="" style="edgeStyle=orthogonalEdgeStyle;rounded=0;orthogonalLoop=1;jettySize=auto;html=1;" edge="1" parent="1" source="di1mMoNL77aX2Rl6L03--27" target="di1mMoNL77aX2Rl6L03--43">
          <mxGeometry relative="1" as="geometry" />
        </mxCell>
        <mxCell id="di1mMoNL77aX2Rl6L03--27" value="Case 5" style="rhombus;whiteSpace=wrap;html=1;dashed=0;" vertex="1" parent="1">
          <mxGeometry x="470" y="680" width="80" height="80" as="geometry" />
        </mxCell>
        <mxCell id="di1mMoNL77aX2Rl6L03--46" value="" style="edgeStyle=orthogonalEdgeStyle;rounded=0;orthogonalLoop=1;jettySize=auto;html=1;" edge="1" parent="1" source="di1mMoNL77aX2Rl6L03--29" target="di1mMoNL77aX2Rl6L03--45">
          <mxGeometry relative="1" as="geometry" />
        </mxCell>
        <mxCell id="di1mMoNL77aX2Rl6L03--29" value="Case 6" style="rhombus;whiteSpace=wrap;html=1;dashed=0;" vertex="1" parent="1">
          <mxGeometry x="570" y="680" width="80" height="80" as="geometry" />
        </mxCell>
        <mxCell id="di1mMoNL77aX2Rl6L03--42" value="" style="edgeStyle=orthogonalEdgeStyle;rounded=0;orthogonalLoop=1;jettySize=auto;html=1;" edge="1" parent="1" source="di1mMoNL77aX2Rl6L03--31" target="di1mMoNL77aX2Rl6L03--41">
          <mxGeometry relative="1" as="geometry" />
        </mxCell>
        <mxCell id="di1mMoNL77aX2Rl6L03--31" value="Case 4" style="rhombus;whiteSpace=wrap;html=1;dashed=0;" vertex="1" parent="1">
          <mxGeometry x="356" y="680" width="80" height="80" as="geometry" />
        </mxCell>
        <mxCell id="di1mMoNL77aX2Rl6L03--33" value="Informasi Akun" style="whiteSpace=wrap;html=1;dashed=0;" vertex="1" parent="1">
          <mxGeometry x="30" y="800" width="120" height="60" as="geometry" />
        </mxCell>
        <mxCell id="di1mMoNL77aX2Rl6L03--37" value="Cek Saldo" style="whiteSpace=wrap;html=1;dashed=0;" vertex="1" parent="1">
          <mxGeometry x="120" y="870" width="120" height="60" as="geometry" />
        </mxCell>
        <mxCell id="di1mMoNL77aX2Rl6L03--39" value="Tambah Saldo" style="whiteSpace=wrap;html=1;dashed=0;" vertex="1" parent="1">
          <mxGeometry x="210" y="800" width="120" height="60" as="geometry" />
        </mxCell>
        <mxCell id="di1mMoNL77aX2Rl6L03--48" value="" style="edgeStyle=orthogonalEdgeStyle;rounded=0;orthogonalLoop=1;jettySize=auto;html=1;" edge="1" parent="1" source="di1mMoNL77aX2Rl6L03--41" target="di1mMoNL77aX2Rl6L03--47">
          <mxGeometry relative="1" as="geometry" />
        </mxCell>
        <mxCell id="di1mMoNL77aX2Rl6L03--41" value="Tarik Saldo" style="whiteSpace=wrap;html=1;dashed=0;" vertex="1" parent="1">
          <mxGeometry x="336" y="880" width="120" height="60" as="geometry" />
        </mxCell>
        <mxCell id="di1mMoNL77aX2Rl6L03--43" value="Riwayat Transaksi" style="whiteSpace=wrap;html=1;dashed=0;" vertex="1" parent="1">
          <mxGeometry x="450" y="800" width="120" height="60" as="geometry" />
        </mxCell>
        <mxCell id="di1mMoNL77aX2Rl6L03--45" value="Keluar" style="whiteSpace=wrap;html=1;dashed=0;" vertex="1" parent="1">
          <mxGeometry x="550" y="870" width="120" height="60" as="geometry" />
        </mxCell>
        <mxCell id="di1mMoNL77aX2Rl6L03--56" value="" style="edgeStyle=orthogonalEdgeStyle;rounded=0;orthogonalLoop=1;jettySize=auto;html=1;" edge="1" parent="1" source="di1mMoNL77aX2Rl6L03--47">
          <mxGeometry relative="1" as="geometry">
            <mxPoint x="396" y="1110" as="targetPoint" />
          </mxGeometry>
        </mxCell>
        <mxCell id="di1mMoNL77aX2Rl6L03--47" value="Output" style="shape=parallelogram;perimeter=parallelogramPerimeter;whiteSpace=wrap;html=1;fixedSize=1;dashed=0;" vertex="1" parent="1">
          <mxGeometry x="336" y="980" width="120" height="60" as="geometry" />
        </mxCell>
        <mxCell id="di1mMoNL77aX2Rl6L03--57" value="End" style="html=1;dashed=0;whiteSpace=wrap;shape=mxgraph.dfd.start" vertex="1" parent="1">
          <mxGeometry x="345" y="1110" width="111" height="50" as="geometry" />
        </mxCell>
        <mxCell id="di1mMoNL77aX2Rl6L03--60" value="" style="endArrow=none;html=1;rounded=0;" edge="1" parent="1">
          <mxGeometry width="50" height="50" relative="1" as="geometry">
            <mxPoint x="720" y="630" as="sourcePoint" />
            <mxPoint x="720" y="1130" as="targetPoint" />
          </mxGeometry>
        </mxCell>
        <mxCell id="di1mMoNL77aX2Rl6L03--63" value="" style="endArrow=classic;html=1;rounded=0;entryX=1.033;entryY=0.333;entryDx=0;entryDy=0;entryPerimeter=0;" edge="1" parent="1" target="di1mMoNL77aX2Rl6L03--57">
          <mxGeometry width="50" height="50" relative="1" as="geometry">
            <mxPoint x="720" y="1130" as="sourcePoint" />
            <mxPoint x="770" y="1070" as="targetPoint" />
          </mxGeometry>
        </mxCell>
        <mxCell id="di1mMoNL77aX2Rl6L03--64" value="" style="endArrow=none;html=1;rounded=0;" edge="1" parent="1">
          <mxGeometry width="50" height="50" relative="1" as="geometry">
            <mxPoint x="80" y="960" as="sourcePoint" />
            <mxPoint x="80" y="860" as="targetPoint" />
          </mxGeometry>
        </mxCell>
        <mxCell id="di1mMoNL77aX2Rl6L03--65" value="" style="endArrow=none;html=1;rounded=0;" edge="1" parent="1">
          <mxGeometry width="50" height="50" relative="1" as="geometry">
            <mxPoint x="80" y="960" as="sourcePoint" />
            <mxPoint x="400" y="960" as="targetPoint" />
          </mxGeometry>
        </mxCell>
        <mxCell id="di1mMoNL77aX2Rl6L03--66" value="" style="endArrow=none;html=1;rounded=0;" edge="1" parent="1">
          <mxGeometry width="50" height="50" relative="1" as="geometry">
            <mxPoint x="280" y="960" as="sourcePoint" />
            <mxPoint x="280" y="860" as="targetPoint" />
          </mxGeometry>
        </mxCell>
        <mxCell id="di1mMoNL77aX2Rl6L03--67" value="" style="endArrow=none;html=1;rounded=0;" edge="1" parent="1">
          <mxGeometry width="50" height="50" relative="1" as="geometry">
            <mxPoint x="180" y="960" as="sourcePoint" />
            <mxPoint x="180" y="930" as="targetPoint" />
          </mxGeometry>
        </mxCell>
        <mxCell id="di1mMoNL77aX2Rl6L03--68" value="" style="endArrow=none;html=1;rounded=0;" edge="1" parent="1">
          <mxGeometry width="50" height="50" relative="1" as="geometry">
            <mxPoint x="400" y="960" as="sourcePoint" />
            <mxPoint x="600" y="960" as="targetPoint" />
          </mxGeometry>
        </mxCell>
        <mxCell id="di1mMoNL77aX2Rl6L03--69" value="" style="endArrow=none;html=1;rounded=0;" edge="1" parent="1">
          <mxGeometry width="50" height="50" relative="1" as="geometry">
            <mxPoint x="522" y="960" as="sourcePoint" />
            <mxPoint x="522" y="860" as="targetPoint" />
          </mxGeometry>
        </mxCell>
        <mxCell id="di1mMoNL77aX2Rl6L03--70" value="" style="endArrow=none;html=1;rounded=0;" edge="1" parent="1">
          <mxGeometry width="50" height="50" relative="1" as="geometry">
            <mxPoint x="600" y="960" as="sourcePoint" />
            <mxPoint x="600" y="930" as="targetPoint" />
          </mxGeometry>
        </mxCell>
      </root>
    </mxGraphModel>
  </diagram>
</mxfile>
